<svg width="1319" height="1319" viewBox="0 0 1319 1319" fill="none" xmlns="http://www.w3.org/2000/svg">
<circle cx="659.5" cy="659.5" r="659.5" fill="#D8CDB9"/>
<path d="M763.524 828.205L770.024 630.706L686.524 615.706L605.024 586.206L841.5 592.706L824 642.706L810.5 985.206L744.5 998.206L740.5 901.706M763.524 828.205L769.524 942.706M763.524 828.205L747.524 847.205C579.425 876.629 525.967 811.4 444.024 668.206C457.5 394.206 693 344.705 765.024 375.205L833.024 511.205L838.5 331.205C763.987 323.282 704.5 311.705 649.5 325.205C594.5 338.706 448.5 394.705 414.5 576.705L334 608.706L409 663.206C409 787.706 548.5 922.706 737 901.706" stroke="#2A1E16" stroke-width="74"/>
</svg>
